<?xml version="1.0" encoding="iso-8859-1"?>
<!-- Generator: Adobe Illustrator 22.0.1, SVG Export Plug-In . SVG Version: 6.00 Build 0)  -->
<svg version="1.1" id="Capa_1" xmlns="http://www.w3.org/2000/svg" xmlns:xlink="http://www.w3.org/1999/xlink" x="0px" y="0px"
	 viewBox="0 0 773.22 246.307" style="enable-background:new 0 0 773.22 246.307;" xml:space="preserve">
<path d="M81.392,109.19V73.688h-1.893c0,18.777-13.25,33.767-32.336,33.767c-6.94,0-12.934-1.262-17.982-5.996
	c-7.098-6.627-11.515-21.617-11.515-46.548S22.083,14.99,29.181,8.363c5.047-4.734,11.041-5.996,17.982-5.996
	c14.196,0,29.812,12.15,29.812,30.453h1.893V0.789h-1.893c-0.315,1.894-3.312,3.787-6.467,3.787c-7.414,0-13.881-4.102-23.345-4.102
	c-26.973,0-46.69,24.615-46.69,54.437c0,29.822,19.717,54.437,46.69,54.437c12.461,0,19.244-4.892,25.08-4.892
	c4.101,0,6.94,2.682,7.256,4.734H81.392z"/>
<path d="M193.089,106.981v-1.893h-13.723V4.734h13.723V2.84h-42.115v1.893h11.988V52.07h-41.327V4.734h11.988V2.84H91.507v1.893
	h13.723v100.354H91.507v1.893h42.116v-1.893h-11.988V53.964h41.327v51.124h-11.988v1.893H193.089z"/>
<path d="M304.16,106.981v-1.893h-12.934L252.896,0h-1.577l-38.014,105.088h-12.461v1.893h29.181v-1.893h-14.512l11.673-32.347
	h35.017l11.673,32.347h-14.354v1.893H304.16z M261.571,70.847h-33.598l16.72-46.706L261.571,70.847z"/>
<path d="M378.637,77.001c0-18.146-11.515-25.089-30.443-31.874c-17.982-6.469-26.657-12.623-26.657-23.195s8.36-19.566,20.19-19.566
	c12.146,0,23.187,8.994,23.345,23.826h1.893V0.631h-1.893c-0.315,1.893-2.839,3.156-5.363,3.156c-5.678,0-9.306-3.313-17.982-3.313
	c-15.143,0-27.288,13.57-27.288,30.453c0,17.357,10.568,24.773,24.134,30.138c17.193,6.627,32.02,9.941,32.02,25.877
	c0,9.783-8.833,20.513-25.553,20.513c-19.402,0-31.074-18.935-31.232-30.927h-1.893v32.662h1.893
	c0.316-2.683,2.681-6.154,7.256-6.154c5.994,0,11.515,6.312,23.976,6.312C367.753,109.348,378.637,90.413,378.637,77.001z"/>
<path d="M433.073,106.981v-1.893h-13.565V4.734h13.565V2.84H389.38v1.893h13.723v100.354H389.38v1.893H433.073z"/>
<path d="M541.291,4.734V2.84h-28.708v1.893h13.565v74.319L476.777,2.84h-32.809v1.893h13.25v100.354h-13.25v1.893h29.497v-1.893
	h-14.354V5.207l67.038,103.983h1.893V4.734H541.291z"/>
<path d="M645.579,66.745v-1.894h-42.747v1.894h13.723v26.351c0,2.682-1.735,14.359-20.032,14.359
	c-6.467,0-12.777-1.262-17.824-5.996c-7.256-6.469-10.726-20.986-10.726-46.548c0-24.931,4.259-39.921,11.357-46.548
	c5.205-4.734,11.042-5.996,17.982-5.996c17.666,0,26.5,12.15,26.657,28.875h1.893V0.631h-1.893
	c-0.315,1.893-1.893,3.629-5.994,3.629c-6.152,0-8.991-3.787-20.663-3.787c-26.815,0-46.69,24.615-46.69,54.437
	c0,29.191,18.455,54.437,45.901,54.437c14.985,0,19.717-6.627,26.973-6.627c4.574,0,7.256,3.471,7.571,5.523h1.893V66.745H645.579z"
	/>
<path d="M84.073,172.935V139.8H0v33.136h1.893c0.158-17.199,7.571-31.242,28.866-31.242h2.997v100.354H20.19v1.894h43.693v-1.894
	H50.318V141.693h2.997c21.137,0,28.708,14.043,28.866,31.242H84.073z"/>
<path d="M194.509,243.941v-1.894h-13.723V141.693h13.723V139.8h-42.115v1.894h11.988v47.337h-41.327v-47.337h11.988V139.8H92.927
	v1.894h13.723v100.354H92.927v1.894h42.116v-1.894h-11.988v-51.124h41.327v51.124h-11.988v1.894H194.509z"/>
<path d="M286.337,243.941v-31.085h-1.893c-0.158,19.881-12.461,29.191-32.651,29.191h-17.351v-50.966h5.363
	c11.988,0,18.771,6.943,18.771,17.357h1.893v-36.449h-1.893c0,10.414-6.783,17.199-18.771,17.199h-5.363v-47.494h16.72
	c18.297,0,25.711,11.045,25.711,25.562h2.051V139.8h-74.451v1.894h13.565v100.354h-13.565v1.894H286.337z"/>
<path d="M413.975,243.941v-32.662h-2.051c-0.158,16.726-8.202,30.769-29.023,30.769h-17.035V141.693h13.565V139.8h-43.693v1.894
	h13.723v100.354h-13.723v1.894H413.975z"/>
<path d="M465.417,243.941v-1.894h-13.565V141.693h13.565V139.8h-43.693v1.894h13.723v100.354h-13.723v1.894H465.417z"/>
<path d="M570.953,203.704v-1.894h-42.746v1.894h13.723v26.351c0,2.682-1.735,14.359-20.032,14.359
	c-6.467,0-12.777-1.262-17.824-5.996c-7.256-6.469-10.726-20.986-10.726-46.548c0-24.931,4.259-39.921,11.357-46.548
	c5.205-4.734,11.041-5.996,17.982-5.996c17.666,0,26.5,12.15,26.657,28.875h1.893V137.59h-1.893
	c-0.315,1.893-1.893,3.629-5.994,3.629c-6.152,0-8.991-3.787-20.663-3.787c-26.815,0-46.69,24.615-46.69,54.437
	c0,29.191,18.455,54.437,45.901,54.437c14.985,0,19.717-6.627,26.973-6.627c4.574,0,7.256,3.471,7.571,5.523h1.893v-41.499H570.953z
	"/>
<path d="M680.289,243.941v-1.894h-13.723V141.693h13.723V139.8h-42.116v1.894h11.988v47.337h-41.327v-47.337h11.988V139.8h-42.115
	v1.894h13.723v100.354h-13.723v1.894h42.115v-1.894h-11.988v-51.124h41.327v51.124h-11.988v1.894H680.289z"/>
<path d="M773.22,172.935V139.8h-84.073v33.136h1.893c0.158-17.199,7.571-31.242,28.866-31.242h2.997v100.354h-13.565v1.894h43.693
	v-1.894h-13.565V141.693h2.997c21.136,0,28.708,14.043,28.865,31.242H773.22z"/>
</svg>
