<?xml version="1.0" encoding="iso-8859-1"?>
<!-- Generator: Adobe Illustrator 22.0.1, SVG Export Plug-In . SVG Version: 6.00 Build 0)  -->
<svg version="1.1" id="Capa_1" xmlns="http://www.w3.org/2000/svg" xmlns:xlink="http://www.w3.org/1999/xlink" x="0px" y="0px"
	 viewBox="0 0 386.493 33.958" style="enable-background:new 0 0 386.493 33.958;" xml:space="preserve">
<path d="M35.451,0.945v-0.42h-6.509v0.42h3.15l-5.844,17.854L19.948,0.945h3.22v-0.42h-9.834v0.42h2.8l1.82,5.076l-4.2,13.023
	L6.789,0.945h3.08v-0.42H0v0.42h2.94l8.889,23.175h0.7l5.669-17.364l6.159,17.364h0.595l7.559-23.175H35.451z"/>
<path d="M51.612,16.699c0-4.306-3.29-7.247-7.209-7.247c-3.92,0-7.209,2.941-7.209,7.247c0,4.306,3.29,7.247,7.209,7.247
	C48.322,23.945,51.612,21.005,51.612,16.699z M48.602,16.699c0,3.221-0.49,5.146-1.645,6.091c-0.665,0.525-1.505,0.735-2.555,0.735
	c-0.98,0-1.89-0.21-2.555-0.735c-1.155-0.945-1.645-2.871-1.645-6.091s0.49-5.146,1.645-6.091c0.665-0.525,1.61-0.735,2.555-0.735
	c1.05,0,1.89,0.21,2.555,0.735C48.112,11.552,48.602,13.478,48.602,16.699z"/>
<path d="M80.305,23.63v-0.42h-2.135v-8.297c0-3.956-2.59-5.461-5.669-5.461c-2.205,0-3.57,1.015-4.34,3.081
	c-0.735-2.205-2.835-3.081-5.319-3.081c-2.205,0-3.535,1.225-3.99,2.521V9.767h-5.074v0.42h2.17V23.21h-2.17v0.42h7.209v-0.42
	h-2.135v-9.522c0-1.89,1.47-3.781,3.745-3.781c2.03,0,2.975,1.785,2.975,3.466v9.837h-2.135v0.42h7.209v-0.42h-2.135v-9.277
	c0-2.17,1.47-4.026,3.779-4.026c1.995,0,2.94,1.785,2.94,3.466v9.837h-2.135v0.42H80.305z"/>
<path d="M95.943,22.545l-0.28-0.175c-0.28,0.595-0.665,0.945-1.12,0.945c-0.49,0-0.805-0.385-0.805-1.19v-6.722
	c0-4.341-1.96-5.951-5.459-5.951c-2.765,0-4.34,1.295-4.34,2.521c0,0.735,0.28,1.47,1.365,1.47c1.015,0,1.4-0.455,1.4-1.085
	c0-0.63-0.315-0.665-0.315-1.19c0-0.805,0.7-1.295,1.89-1.295c1.295,0,2.695,0.525,2.695,3.221v1.855c0,0.91-2.38,1.26-4.234,1.435
	c-1.33,0.14-4.235,0.735-4.235,3.921c0,2.521,2.17,3.641,4.479,3.641c2.275,0,3.5-1.085,4.06-2.311c0.21,1.4,1.05,2.311,2.625,2.311
	C94.964,23.945,95.663,23.315,95.943,22.545z M90.974,19.989c0,1.68-1.19,3.466-3.395,3.466c-1.575,0-2.31-1.295-2.31-3.151
	c0-2.59,1.26-3.256,2.38-3.501c1.015-0.21,2.765-0.385,3.325-1.155V19.989z"/>
<path d="M114.628,23.63v-0.42h-2.135v-8.297c0-3.956-2.555-5.461-5.669-5.461c-2.205,0-3.535,1.225-3.99,2.521V9.767H97.76v0.42
	h2.17V23.21h-2.17v0.42h7.209v-0.42h-2.135v-9.487c0-1.89,1.47-3.816,3.745-3.816c2.03,0,2.975,1.785,2.975,3.466v9.837h-2.135v0.42
	H114.628z"/>
<path d="M141.045,16.979c0-4.026-2.555-5.566-6.754-7.072c-3.99-1.435-5.914-2.8-5.914-5.146c0-2.346,1.855-4.341,4.48-4.341
	c2.695,0,5.145,1.995,5.18,5.286h0.42V0.035h-0.42c-0.07,0.42-0.63,0.7-1.19,0.7c-1.26,0-2.065-0.735-3.99-0.735
	c-3.359,0-6.054,3.011-6.054,6.756c0,3.851,2.345,5.496,5.354,6.686c3.814,1.47,7.104,2.206,7.104,5.741
	c0,2.17-1.96,4.551-5.669,4.551c-4.305,0-6.894-4.201-6.929-6.862h-0.42v7.247h0.42c0.07-0.595,0.595-1.365,1.61-1.365
	c1.33,0,2.555,1.4,5.319,1.4C138.63,24.155,141.045,19.954,141.045,16.979z"/>
<path d="M158.924,16.699c0-4.131-3.36-7.247-6.649-7.247c-1.995,0-3.15,0.945-3.78,2.135v-1.82h-5.074v0.42h2.135v23.035h-2.135
	v0.42h7.209v-0.42h-2.135V21.81c0.63,1.19,1.785,2.135,3.78,2.135C155.565,23.945,158.924,20.899,158.924,16.699z M155.95,16.699
	c0,3.221-0.49,5.146-1.645,6.091c-0.665,0.525-1.365,0.7-2.275,0.7c-2.03,0-3.325-1.575-3.535-3.291v-6.931
	c0.21-1.75,1.505-3.361,3.535-3.361c0.91,0,1.61,0.175,2.275,0.7C155.46,11.517,155.95,13.548,155.95,16.699z"/>
<path d="M172.429,11.868c0-1.75-1.435-2.416-2.52-2.416c-1.96,0-3.22,1.085-3.71,2.626V9.767h-5.074v0.42h2.135V23.21h-2.135v0.42
	h7.209v-0.42H166.2v-9.277c0-2.101,1.47-3.746,2.555-3.746c0.665,0,0.98,0.455,0.98,0.875c0,0.665-0.42,0.805-0.42,1.505
	c0,0.665,0.56,1.225,1.54,1.225C171.834,13.793,172.429,13.058,172.429,11.868z"/>
<path d="M179.951,3.291c0-1.05-0.84-1.855-1.855-1.855c-1.015,0-1.855,0.84-1.855,1.855c0,1.05,0.84,1.89,1.855,1.89
	C179.111,5.181,179.951,4.341,179.951,3.291z M181.701,23.63v-0.42h-2.135V9.767h-5.074v0.42h2.17V23.21h-2.17v0.42H181.701z"/>
<path d="M200.947,23.63v-0.42h-2.135v-8.297c0-3.956-2.555-5.461-5.669-5.461c-2.205,0-3.535,1.225-3.99,2.521V9.767h-5.074v0.42
	h2.17V23.21h-2.17v0.42h7.209v-0.42h-2.135v-9.487c0-1.89,1.47-3.816,3.745-3.816c2.03,0,2.975,1.785,2.975,3.466v9.837h-2.135v0.42
	H200.947z"/>
<path d="M219.911,11.238c0-0.98-0.805-1.785-1.855-1.785c-1.365,0-2.31,0.77-3.01,1.82c-1.12-1.155-2.695-1.82-4.27-1.82
	c-2.905,0-5.704,2.135-5.704,5.216c0,1.295,0.49,2.381,1.295,3.291c-1.575,0.91-2.695,2.065-2.695,3.991
	c0,1.645,1.295,2.731,3.325,3.186c-2.275,0.56-4.164,2.346-4.164,4.236c0,2.38,2.73,4.586,8.154,4.586
	c3.639,0,8.329-1.54,8.329-5.846c0-3.536-2.38-5.076-6.684-5.216l-3.885-0.14c-1.96-0.035-3.22-0.595-3.22-2.31
	c0-1.155,0.49-1.645,1.155-2.17c1.12,0.98,2.625,1.575,4.094,1.575c2.87,0,5.669-2.101,5.669-5.181c0-1.19-0.42-2.24-1.12-3.116
	c0.805-1.155,1.61-1.365,2.065-1.365c0.315,0,0.665,0.21,0.665,0.595c0,0.315-0.28,0.42-0.28,0.91c0,0.42,0.455,0.805,1.05,0.805
	C219.561,12.498,219.911,12.043,219.911,11.238z M213.717,14.668c0,2.416-0.35,3.536-1.155,4.201c-0.49,0.385-1.05,0.56-1.785,0.56
	c-0.7,0-1.33-0.175-1.82-0.56c-0.805-0.665-1.155-1.785-1.155-4.201c0-2.31,0.35-3.571,1.155-4.271
	c0.49-0.385,1.12-0.525,1.82-0.525c0.735,0,1.295,0.14,1.785,0.525C213.367,11.097,213.717,12.358,213.717,14.668z M217.741,29.161
	c0,2.731-3.57,4.376-6.754,4.376c-3.535,0-5.949-1.4-5.949-4.586c0-2.031,1.085-3.116,2.45-3.746c1.015,0.14,4.409,0.175,6.194,0.28
	C215.921,25.591,217.741,26.991,217.741,29.161z"/>
<path d="M245.732,16.979c0-4.026-2.555-5.566-6.754-7.072c-3.989-1.435-5.914-2.8-5.914-5.146c0-2.346,1.855-4.341,4.48-4.341
	c2.695,0,5.144,1.995,5.179,5.286h0.42V0.035h-0.42c-0.07,0.42-0.63,0.7-1.19,0.7c-1.26,0-2.065-0.735-3.989-0.735
	c-3.36,0-6.054,3.011-6.054,6.756c0,3.851,2.345,5.496,5.354,6.686c3.815,1.47,7.104,2.206,7.104,5.741
	c0,2.17-1.96,4.551-5.669,4.551c-4.305,0-6.894-4.201-6.929-6.862h-0.42v7.247h0.42c0.07-0.595,0.595-1.365,1.61-1.365
	c1.33,0,2.555,1.4,5.319,1.4C243.318,24.155,245.732,19.954,245.732,16.979z"/>
<path d="M264.872,23.63v-0.42h-2.17V9.767h-5.074v0.42h2.17v9.487c0,1.891-1.505,3.816-3.814,3.816c-1.995,0-2.94-1.785-2.94-3.466
	V9.767h-5.039v0.42h2.135v8.262c0,3.956,2.555,5.496,5.669,5.496c2.205,0,3.535-1.225,3.99-2.521v2.205H264.872z"/>
<path d="M293.775,23.63v-0.42h-2.135v-8.297c0-3.956-2.59-5.461-5.669-5.461c-2.205,0-3.57,1.015-4.339,3.081
	c-0.735-2.205-2.835-3.081-5.319-3.081c-2.205,0-3.535,1.225-3.99,2.521V9.767h-5.074v0.42h2.17V23.21h-2.17v0.42h7.209v-0.42
	h-2.135v-9.522c0-1.89,1.47-3.781,3.745-3.781c2.03,0,2.975,1.785,2.975,3.466v9.837h-2.135v0.42h7.209v-0.42h-2.135v-9.277
	c0-2.17,1.47-4.026,3.78-4.026c1.995,0,2.94,1.785,2.94,3.466v9.837h-2.135v0.42H293.775z"/>
<path d="M322.676,23.63v-0.42h-2.135v-8.297c0-3.956-2.59-5.461-5.669-5.461c-2.205,0-3.57,1.015-4.34,3.081
	c-0.735-2.205-2.835-3.081-5.319-3.081c-2.205,0-3.535,1.225-3.99,2.521V9.767h-5.074v0.42h2.17V23.21h-2.17v0.42h7.209v-0.42
	h-2.135v-9.522c0-1.89,1.47-3.781,3.745-3.781c2.03,0,2.974,1.785,2.974,3.466v9.837h-2.135v0.42h7.209v-0.42h-2.135v-9.277
	c0-2.17,1.47-4.026,3.78-4.026c1.995,0,2.94,1.785,2.94,3.466v9.837h-2.135v0.42H322.676z"/>
<path d="M337.999,15.858c-0.035-3.151-2.31-6.406-6.159-6.406c-3.815,0-6.999,2.941-6.999,7.247c0,4.306,3.22,7.247,7.139,7.247
	c2.485,0,4.234-1.19,5.669-3.116l-0.35-0.28c-0.91,1.365-2.729,2.976-5.319,2.976c-0.91,0-1.855-0.21-2.52-0.735
	c-1.155-0.945-1.575-2.731-1.575-6.091v-0.84H337.999z M335.095,15.438h-7.174c0.105-2.486,0.595-4.026,1.54-4.831
	c0.665-0.56,1.61-0.735,2.38-0.735c0.7,0,1.47,0.21,2.1,0.735C334.99,11.517,335.095,13.583,335.095,15.438z"/>
<path d="M351.539,11.868c0-1.75-1.435-2.416-2.52-2.416c-1.96,0-3.22,1.085-3.71,2.626V9.767h-5.074v0.42h2.135V23.21h-2.135v0.42
	h7.209v-0.42h-2.135v-9.277c0-2.101,1.47-3.746,2.555-3.746c0.665,0,0.98,0.455,0.98,0.875c0,0.665-0.42,0.805-0.42,1.505
	c0,0.665,0.56,1.225,1.54,1.225C350.944,13.793,351.539,13.058,351.539,11.868z"/>
<path d="M370.608,23.63v-0.42h-2.38V0.175c-1.995,1.33-5.354,2.206-5.704,2.276v0.42c0.805-0.14,2.94-0.84,2.94-0.35v20.69h-2.38
	v0.42H370.608z"/>
<path d="M386.493,10.187c0-7.001-2.975-9.977-7.104-9.977c-3.955,0-6.929,3.116-6.929,6.932c0,4.306,2.975,7.072,6.929,7.072
	c1.435,0,3.254-0.77,4.094-2.276c-0.21,6.056-1.785,11.588-5.354,11.588c-1.05,0-1.61-0.7-1.61-1.61c0-0.595,0.28-0.91,0.28-1.4
	c0-0.56-0.455-1.19-1.435-1.19c-1.015,0-1.435,0.84-1.435,1.61c0,1.12,1.295,3.011,4.199,3.011
	C383.344,23.945,386.493,17.154,386.493,10.187z M383.484,10.502c-0.07,1.68-1.89,3.291-4.094,3.291
	c-1.015,0-1.715-0.175-2.485-0.735c-1.19-0.945-1.575-2.731-1.575-5.916c0-3.326,0.385-4.866,1.575-5.741
	c0.77-0.595,1.505-0.77,2.485-0.77c1.015,0,1.68,0.175,2.415,0.805c1.12,0.945,1.75,2.591,1.75,5.671
	C383.554,7.527,383.554,10.432,383.484,10.502z"/>
</svg>
